<svg width="700" height="480" xmlns="http://www.w3.org/2000/svg">
  <path d="M686.53 221.8a8.42 8.42 0 00-2.46-3.56 6.54 6.54 0 00-1.76-1.1L396.96 100.8c-.42-.17-.84-.4-1.27-.67-.43-.28-.87-.6-1.32-1-.45-.4-.91-.85-1.39-1.37-.47-.52-.96-1.1-1.47-1.77a36.37 36.37 0 01-2.29-3.42 58.06 58.06 0 01-2.3-4.28 77.44 77.44 0 01-2.23-5.02 113.2 113.2 0 01-5.51-18.45A129.04 129.04 0 01377 50.77c-.32-3.21-.5-6.3-.55-9.22-.04-2.93.03-5.71.23-8.3.2-2.6.5-5 .92-7.2.42-2.19.94-4.16 1.54-5.89.3-.86.63-1.66.98-2.39.34-.73.7-1.4 1.08-2 .38-.6.77-1.12 1.17-1.58a8.53 8.53 0 011.9-1.63l.23-.12L14.15 210.32a3.7 3.7 0 00-.76.52c-.34.3-.67.66-.98 1.1-.32.45-.61.97-.89 1.56-.27.6-.53 1.26-.76 2-.22.73-.43 1.54-.6 2.42-.36 1.76-.6 3.79-.72 6.06-.12 2.27-.12 4.78.01 7.5.13 2.72.4 5.64.78 8.75a170.04 170.04 0 007.5 31.99 160.88 160.88 0 005.03 12.9c.87 1.97 1.76 3.82 2.64 5.55a85.94 85.94 0 002.62 4.76c.86 1.44 1.7 2.73 2.51 3.86.55.75 1.07 1.43 1.57 2.03.5.6.97 1.13 1.43 1.6.46.46.9.85 1.34 1.2.43.33.84.61 1.24.84l279.72 156.76c.62.35 1.22.82 1.8 1.39a12.34 12.34 0 012.71 4.08c.3.74.52 1.5.6 2.2.05.36.06.7.04 1-.02.3-.06.58-.14.82-.08.24-.18.46-.3.64-.14.19-.29.34-.46.46l365.6-245.58a2.52 2.52 0 00.94-1.14 4.67 4.67 0 00.31-1.75 6.45 6.45 0 00-.4-2.04h0z" stroke-width="2" stroke="#003f7f" fill="#003f7f"/>
  <path d="M297.16 394.96a165.9 165.9 0 004.85 23.9c1.08 3.86 2.28 7.64 3.59 11.3a148.56 148.56 0 005.59 13.47 122.94 122.94 0 004.36 8.26L42.07 299.76c-.41-.23-.83-.5-1.26-.85-.43-.34-.88-.74-1.34-1.2-.46-.47-.94-1-1.44-1.6-.5-.6-1.03-1.28-1.57-2.04a53.22 53.22 0 01-2.52-3.87 84.5 84.5 0 01-2.63-4.77c-.89-1.73-1.77-3.59-2.65-5.56-.88-1.97-1.74-4.04-2.58-6.2a159.14 159.14 0 01-4.67-13.92 176.16 176.16 0 01-3.64-15.12c-.67-3.43-1.2-6.72-1.58-9.83-.39-3.12-.64-6.05-.76-8.78-.12-2.73-.11-5.26.02-7.54.13-2.28.38-4.32.74-6.09.18-.88.4-1.7.63-2.44.23-.74.49-1.4.77-2 .28-.6.58-1.12.9-1.57.32-.44.65-.82 1-1.11.35-.3.71-.52 1.08-.67a3.38 3.38 0 012.28-.14c.4.1.8.26 1.2.47L302.9 349.72c-.67.8-1.29 1.71-1.85 2.71-.57 1-1.09 2.1-1.56 3.29a37.38 37.38 0 00-1.26 3.8c-.37 1.35-.7 2.78-.98 4.29-.38 2.08-.67 4.3-.87 6.67-.2 2.35-.31 4.85-.32 7.46-.02 2.6.07 5.34.25 8.18.19 2.84.47 5.79.86 8.84z" fill="#3f973e"/>
  <path d="M298.16 395.96a165.9 165.9 0 004.85 23.9c1.08 3.86 2.28 7.64 3.59 11.3a148.56 148.56 0 005.59 13.47 122.94 122.94 0 004.36 8.26L43.07 300.76c-.41-.23-.83-.5-1.26-.85-.43-.34-.88-.74-1.34-1.2-.46-.47-.94-1-1.44-1.6-.5-.6-1.03-1.28-1.57-2.04a53.22 53.22 0 01-2.52-3.87 84.5 84.5 0 01-2.63-4.77c-.89-1.73-1.77-3.59-2.65-5.56-.88-1.97-1.74-4.04-2.58-6.2a159.14 159.14 0 01-4.67-13.92 176.16 176.16 0 01-3.64-15.12c-.67-3.43-1.2-6.72-1.58-9.83-.39-3.12-.64-6.05-.76-8.78-.12-2.73-.11-5.26.02-7.54.13-2.28.38-4.32.74-6.09.18-.88.4-1.7.63-2.44.23-.74.49-1.4.77-2 .28-.6.58-1.12.9-1.57.32-.44.65-.82 1-1.11.35-.3.71-.52 1.08-.67a3.38 3.38 0 012.28-.14c.4.1.8.26 1.2.47L303.9 350.72c-.67.8-1.29 1.71-1.85 2.71-.57 1-1.09 2.1-1.56 3.29a37.38 37.38 0 00-1.26 3.8c-.37 1.35-.7 2.78-.98 4.29-.38 2.08-.67 4.3-.87 6.67-.2 2.35-.31 4.85-.32 7.46-.02 2.6.07 5.34.25 8.18.19 2.84.47 5.79.86 8.84z" fill="#fff"/>
  <path d="M379.6 16.18a5.86 5.86 0 00-2.08-.35 4.51 4.51 0 00-2.07.59c-118.07 63.1-236.13 126.22-354.2 189.33a3.52 3.52 0 012.8-.23c.33.1.67.23 1 .4l278.84 144.8 360.37-226.93L379.6 16.2z" fill="#3f973e"/>
  <path d="M665.59 217.43a75.78 75.78 0 01-2.45-5.01 106.14 106.14 0 01-4.53-12.24c-1.01-3.34-1.9-6.8-2.63-10.36a129.32 129.32 0 01-2.6-30.6c.1-2.7.3-5.3.6-7.78.29-2.5.67-4.88 1.13-7.15a67.2 67.2 0 011.65-6.45c.45-1.47.95-2.86 1.5-4.2a41.19 41.19 0 011.73-3.76 31.4 31.4 0 012-3.3 23.99 23.99 0 012.27-2.79L303.89 350.71c-.67.81-1.29 1.72-1.85 2.72-.57 1-1.09 2.1-1.56 3.29a37.38 37.38 0 00-1.26 3.8c-.37 1.35-.7 2.78-.98 4.29-.38 2.08-.67 4.3-.87 6.67-.2 2.35-.31 4.85-.32 7.46-.02 2.6.07 5.34.25 8.18s.47 5.79.85 8.84a165.9 165.9 0 004.86 23.9 165.4 165.4 0 003.59 11.3 148.56 148.56 0 005.58 13.47 122.94 122.94 0 004.37 8.26l350.36-233.08c-.45-.78-.89-1.57-1.32-2.38z" fill="#e2e3e4"/>
  <g>
    <path d="M15.94 200.4L301.7 348.86c.63.33 1.25.8 1.84 1.36a11.9 11.9 0 012.8 4.18c.31.78.53 1.57.62 2.32.1.76.06 1.41-.1 1.95a2 2 0 01-2.08 1.63 3.94 3.94 0 01-1.71-.5L17.92 210.52a5.7 5.7 0 00-1.2-.48c-.4-.1-.78-.14-1.15-.12-.38.02-.75.1-1.1.26a4.2 4.2 0 00-1.08.66c-.34.3-.67.66-.98 1.1-.32.45-.61.97-.89 1.56-.27.6-.53 1.26-.76 2-.22.73-.43 1.54-.6 2.42-.36 1.76-.6 3.79-.72 6.06-.12 2.27-.12 4.78.01 7.5.13 2.72.4 5.64.79 8.75a170.04 170.04 0 007.5 31.99 160.88 160.88 0 005.02 12.9c.87 1.97 1.76 3.82 2.64 5.55a85.94 85.94 0 002.62 4.76c.87 1.44 1.7 2.73 2.52 3.86.54.75 1.06 1.43 1.56 2.03.5.6.97 1.13 1.43 1.6.46.46.9.85 1.34 1.2.43.33.84.61 1.24.84l279.72 156.76c.62.35 1.22.82 1.8 1.39a12.34 12.34 0 012.71 4.08c.3.74.52 1.5.6 2.2.1.72.05 1.32-.1 1.81a2 2 0 01-.75 1.1c-.35.24-.78.34-1.28.3a4.2 4.2 0 01-1.69-.58L37.96 314.54c-.9-.51-1.8-1.13-2.7-1.85a31.6 31.6 0 01-2.7-2.43c-.88-.9-1.76-1.88-2.63-2.92a57.19 57.19 0 01-2.53-3.3 93.87 93.87 0 01-7.05-11.76 161.92 161.92 0 01-6.23-13.95 184.8 184.8 0 01-6.78-21.02c-.96-3.66-1.81-7.38-2.55-11.12-.56-2.8-1.03-5.53-1.41-8.15-.4-2.63-.7-5.16-.92-7.59-.22-2.43-.36-4.75-.42-6.96a81 81 0 01.05-6.26c.1-1.96.28-3.79.54-5.48.26-1.7.6-3.26 1.02-4.65.42-1.4.93-2.64 1.54-3.7.6-1.07 1.3-1.96 2.08-2.66a6.12 6.12 0 013.75-1.57 7.7 7.7 0 012.32.22c.82.2 1.69.54 2.6 1z" stroke-width="2" stroke="#003f7f" fill="#00007f"/>
  </g>
  <path d="M684.05 116.13a8.58 8.58 0 00-2.52-3.64 6.26 6.26 0 00-1.81-1.07L387.7 2.74a12 12 0 00-2.24-.6 9.87 9.87 0 00-4.05.2c-.63.17-1.23.4-1.8.71L8.53 199.86a6.03 6.03 0 013.33-.7 8.5 8.5 0 011.95.36c.68.2 1.39.5 2.13.88L301.7 348.86c.63.33 1.25.8 1.84 1.36a11.9 11.9 0 012.8 4.18c.31.78.53 1.57.62 2.32.05.4.07.78.04 1.13-.02.34-.08.65-.17.93-.08.27-.2.52-.35.72-.15.2-.33.37-.53.5l377.07-238.51a2.76 2.76 0 001.08-1.27 5.06 5.06 0 00.36-1.96 6.87 6.87 0 00-.4-2.13h0z" stroke-width="2" stroke="#003f7f" fill="#003f7f"/>
</svg>